<svg xmlns="http://www.w3.org/2000/svg" xmlns:xlink="http://www.w3.org/1999/xlink" width="38" height="38" viewBox="0 0 38 38">
  <defs>
    <clipPath id="clip-path">
      <rect id="Rectangle_5781" data-name="Rectangle 5781" width="38" height="38" transform="translate(198 1561)" fill="#fff" stroke="#707070" stroke-width="1"/>
    </clipPath>
  </defs>
  <g id="Mask_Group_422" data-name="Mask Group 422" transform="translate(-198 -1561)" clip-path="url(#clip-path)">
    <g id="Group_19737" data-name="Group 19737" transform="translate(199.9 1562.9)">
      <path id="Path_8812" data-name="Path 8812" d="M32.473,181.9V160.822a.57.57,0,0,0-.57-.57h-5.7a.57.57,0,0,0-.57.57V181.9H24.5V168.8a.57.57,0,0,0-.57-.57h-5.7a.57.57,0,0,0-.57.57v13.1H16.521V163.1a.57.57,0,0,0-.57-.57h-5.7a.57.57,0,0,0-.57.57v18.8H8.546V171.076a.57.57,0,0,0-.57-.57h-5.7a.57.57,0,0,0-.57.57V181.9H0v1.139H34.182V181.9Zm-25.067,0H2.849V171.646H7.406Zm7.976,0H10.824V163.67h4.558Zm7.976,0H18.8V169.367h4.558Zm7.976,0H26.776V161.391h4.558Z" transform="translate(0 -148.84)" fill="#3c3c3b"/>
      <path id="Path_8813" data-name="Path 8813" d="M33.271,15.5a2.849,2.849,0,0,0,3.947-3.947L41.25,7.517a2.819,2.819,0,0,0,1.562.476,2.859,2.859,0,0,0,.5-.044,2.828,2.828,0,0,0,1.446-.722l3.38,2.6a2.849,2.849,0,1,0,5.032-.555L57.2,5.24a2.857,2.857,0,1,0-.806-.806L52.364,8.465a2.848,2.848,0,0,0-3.585.362c-.011.011-.017.023-.027.034L45.421,6.3a2.849,2.849,0,1,0-4.978.413l-4.031,4.031A2.849,2.849,0,0,0,33.271,15.5m25.5-14.34A1.709,1.709,0,1,1,57.06,2.866a1.709,1.709,0,0,1,1.709-1.709M49.584,9.634A1.709,1.709,0,1,1,52,12.051a1.751,1.751,0,0,1-2.417,0,1.709,1.709,0,0,1,0-2.417M41.418,4.165h0a1.7,1.7,0,0,1,1.1-.7,1.783,1.783,0,0,1,.3-.026,1.709,1.709,0,1,1-1.4.729m-7.785,7.748h0A1.709,1.709,0,0,1,36.05,14.33a1.751,1.751,0,0,1-2.417,0,1.709,1.709,0,0,1,0-2.417" transform="translate(-29.715 0)" fill="#978c21"/>
    </g>
  </g>
</svg>
