<svg xmlns="http://www.w3.org/2000/svg" xmlns:xlink="http://www.w3.org/1999/xlink" width="38" height="38" viewBox="0 0 38 38">
  <defs>
    <clipPath id="clip-path">
      <rect id="Rectangle_5782" data-name="Rectangle 5782" width="38" height="38" transform="translate(598 1483)" fill="#fff" stroke="#707070" stroke-width="1"/>
    </clipPath>
  </defs>
  <g id="Mask_Group_423" data-name="Mask Group 423" transform="translate(-598 -1483)" clip-path="url(#clip-path)">
    <g id="Group_19740" data-name="Group 19740" transform="translate(599.448 1488.286)">
      <path id="Path_8814" data-name="Path 8814" d="M1332.032,112.748h-13.618a.625.625,0,0,0-.625.625v1.277a1.927,1.927,0,0,1-1.97,1.877,1.877,1.877,0,0,1-1.876-1.877V97.24a3.112,3.112,0,0,0-.625-1.876h10.715a2.5,2.5,0,0,1,2.5,2.5V111.02a.625.625,0,1,0,1.251,0V97.865a3.752,3.752,0,0,0-3.752-3.753h-6.28V94.1A3.752,3.752,0,0,0,1314,90.35h-13.319a3.127,3.127,0,0,0-3.127,3.127v1.261a.626.626,0,0,0,.625.625h2.79a.625.625,0,0,0,0-1.251H1298.8v-.636a1.876,1.876,0,0,1,1.876-1.876,1.9,1.9,0,0,1,1.97,1.876v13.171a3.1,3.1,0,0,0,3.1,3.1h4.974a.625.625,0,1,0,0-1.251h-2.487a3.083,3.083,0,0,0,.611-1.847V97.24a1.876,1.876,0,0,1,1.876-1.876,1.9,1.9,0,0,1,1.969,1.876v17.411a3.127,3.127,0,0,0,3.127,3.128h13.712a3.128,3.128,0,0,0,3.127-3.128v-1.277a.625.625,0,0,0-.625-.625m-21.31-18.635a3.127,3.127,0,0,0-3.127,3.127v9.409a1.846,1.846,0,1,1-3.693,0V93.477a3.116,3.116,0,0,0-.626-1.876H1314a2.5,2.5,0,0,1,2.5,2.5v.01Zm20.685,20.538a1.877,1.877,0,0,1-1.876,1.877h-11.115a3.116,3.116,0,0,0,.624-1.877V114h12.367Z" transform="translate(-1297.554 -90.35)" fill="#3c3c3b" fill-rule="evenodd"/>
      <path id="Path_8815" data-name="Path 8815" d="M1529.352,208.62a2.1,2.1,0,1,0,2.1,2.1,2.1,2.1,0,0,0-2.1-2.1m0,2.946a.847.847,0,1,1,.848-.847.847.847,0,0,1-.848.847" transform="translate(-1509.296 -199.374)" fill="#978c21" fill-rule="evenodd"/>
      <path id="Path_8816" data-name="Path 8816" d="M1548.448,209.282a.625.625,0,0,1,.149.872l-5.833,8.24a.625.625,0,1,1-1.021-.723l5.833-8.24a.626.626,0,0,1,.872-.149" transform="translate(-1522.546 -199.878)" fill="#978c21" fill-rule="evenodd"/>
      <path id="Path_8817" data-name="Path 8817" d="M1596.282,279.65a2.1,2.1,0,1,0,2.1,2.1,2.1,2.1,0,0,0-2.1-2.1m0,2.945a.847.847,0,1,1,.847-.847.847.847,0,0,1-.847.847" transform="translate(-1570.994 -264.851)" fill="#978c21" fill-rule="evenodd"/>
    </g>
  </g>
</svg>
