<svg xmlns="http://www.w3.org/2000/svg" xmlns:xlink="http://www.w3.org/1999/xlink" width="38" height="38" viewBox="0 0 38 38">
  <defs>
    <clipPath id="clip-path">
      <rect id="Rectangle_5780" data-name="Rectangle 5780" width="38" height="38" transform="translate(398 1483)" fill="#fff" stroke="#707070" stroke-width="1"/>
    </clipPath>
  </defs>
  <g id="Mask_Group_421" data-name="Mask Group 421" transform="translate(-398 -1483)" clip-path="url(#clip-path)">
    <g id="Group_19736" data-name="Group 19736" transform="translate(398 1485.49)">
      <path id="Path_8803" data-name="Path 8803" d="M2791.382,159.715a2.849,2.849,0,1,0,2.848,2.849,2.848,2.848,0,0,0-2.848-2.849m0,4.307a1.459,1.459,0,1,1,1.458-1.458,1.458,1.458,0,0,1-1.458,1.458" transform="translate(-2776.287 -149.814)" fill="#978c21" fill-rule="evenodd"/>
      <path id="Path_8804" data-name="Path 8804" d="M2817.079,160.562a.7.7,0,0,1,.166.969l-8.531,12.049a.695.695,0,1,1-1.135-.8l8.53-12.049a.7.7,0,0,1,.969-.166" transform="translate(-2793.561 -150.47)" fill="#978c21" fill-rule="evenodd"/>
      <path id="Path_8805" data-name="Path 8805" d="M2879.472,253.2a2.849,2.849,0,1,0,2.849,2.848,2.848,2.848,0,0,0-2.849-2.848m0,4.307a1.459,1.459,0,1,1,1.459-1.459,1.459,1.459,0,0,1-1.459,1.459" transform="translate(-2856.725 -235.184)" fill="#978c21" fill-rule="evenodd"/>
      <path id="Path_8806" data-name="Path 8806" d="M2858.035,46.42a.7.7,0,0,1,.7-.695,16.456,16.456,0,0,1,6.59,1.368.695.695,0,1,1-.556,1.274,15.064,15.064,0,0,0-6.034-1.252.7.7,0,0,1-.7-.695" transform="translate(-2839.75 -45.725)" fill="#3c3c3b" fill-rule="evenodd"/>
      <path id="Path_8807" data-name="Path 8807" d="M2665.115,47.888a.7.7,0,0,1-.6.779,15.123,15.123,0,0,0-13.131,14.99.695.695,0,0,1-.695.695h-1.158l3.166,4.663,3.508-4.663h-1.314a.7.7,0,0,1-.695-.695,12.308,12.308,0,0,1,22.472-6.941.695.695,0,0,1-1.146.785,10.919,10.919,0,0,0-19.914,5.461h1.99a.695.695,0,0,1,.555,1.113l-4.929,6.553a.7.7,0,0,1-1.131-.027l-4.449-6.553a.7.7,0,0,1,.575-1.085h1.789a16.514,16.514,0,0,1,14.326-15.673.7.7,0,0,1,.779.6" transform="translate(-2647.525 -47.148)" fill="#3c3c3b" fill-rule="evenodd"/>
      <path id="Path_8808" data-name="Path 8808" d="M2953.343,72.9a.7.7,0,0,1,.956-.228,16.579,16.579,0,0,1,3.49,2.868.695.695,0,1,1-1.02.944,15.187,15.187,0,0,0-3.2-2.627.7.7,0,0,1-.228-.956" transform="translate(-2926.686 -70.237)" fill="#3c3c3b" fill-rule="evenodd"/>
      <path id="Path_8809" data-name="Path 8809" d="M2771.618,152.4a.694.694,0,0,1,.569.294l4.629,6.548a.7.7,0,0,1-.567,1.1h-1.832a16.513,16.513,0,0,1-14.368,15.679.695.695,0,1,1-.177-1.379,15.122,15.122,0,0,0,13.17-15,.7.7,0,0,1,.7-.695h1.17l-3.283-4.645-3.24,4.645h1.151a.7.7,0,0,1,.7.695,12.309,12.309,0,0,1-22.47,6.945.695.695,0,0,1,1.147-.785,10.919,10.919,0,0,0,19.911-5.465h-1.768a.695.695,0,0,1-.57-1.092l4.569-6.549A.7.7,0,0,1,2771.618,152.4Z" transform="translate(-2738.944 -143.139)" fill="#3c3c3b" fill-rule="evenodd"/>
      <path id="Path_8810" data-name="Path 8810" d="M2724.561,351.582a.7.7,0,0,1,.982.038,15.186,15.186,0,0,0,2.869,2.42.695.695,0,0,1-.758,1.165,16.576,16.576,0,0,1-3.131-2.641A.7.7,0,0,1,2724.561,351.582Z" transform="translate(-2717.666 -324.847)" fill="#3c3c3b" fill-rule="evenodd"/>
      <path id="Path_8811" data-name="Path 8811" d="M2776.993,391.236a.7.7,0,0,1,.932-.312,15.049,15.049,0,0,0,6.735,1.579.695.695,0,0,1,0,1.39,16.443,16.443,0,0,1-7.355-1.725A.7.7,0,0,1,2776.993,391.236Z" transform="translate(-2765.681 -360.874)" fill="#3c3c3b" fill-rule="evenodd"/>
    </g>
  </g>
</svg>
