<svg xmlns="http://www.w3.org/2000/svg" width="170" height="50" viewBox="0 0 170 50">
  <g id="Group_14136" data-name="Group 14136" transform="translate(0 -0.186)">
    <rect id="Rectangle_4603" data-name="Rectangle 4603" width="170" height="50" rx="5" transform="translate(0 0.185)"/>
    <g id="Group_14131" data-name="Group 14131" transform="translate(18.889 7.831)">
      <path id="Path_7603" data-name="Path 7603" d="M64.822,361.714a24.938,24.938,0,0,1-2.255,4.21c-1.465,2.23-3.529,5.006-6.086,5.029-2.273.021-2.857-1.479-5.941-1.462s-3.728,1.488-6,1.468c-2.557-.024-4.513-2.531-5.978-4.76-4.1-6.234-4.523-13.55-2-17.439a9.062,9.062,0,0,1,7.289-4.382c2.711,0,4.415,1.487,6.656,1.487,2.174,0,3.5-1.489,6.633-1.489a8.845,8.845,0,0,1,6.667,3.521,7.63,7.63,0,0,0,1.013,13.818" transform="translate(-34.996 -336.249)" fill="#fff"/>
      <path id="Path_7604" data-name="Path 7604" d="M89,322.481a7.61,7.61,0,0,0,1.69-5.635,8.22,8.22,0,0,0-5.307,2.854,7.062,7.062,0,0,0-1.734,5.5A6.938,6.938,0,0,0,89,322.481" transform="translate(-69.231 -316.846)" fill="#fff"/>
      <path id="Path_7605" data-name="Path 7605" d="M164.307,358.911l-5.866,17.268h2.687l1.751-5.3h5.68l1.8,5.3h2.761l-5.891-17.268Zm1.392,2.839c.2.771.412,1.571.687,2.436l1.581,4.579h-4.5l1.559-4.609c.237-.747.463-1.554.673-2.406" transform="translate(-122.006 -346.495)" fill="#fff"/>
      <path id="Path_7606" data-name="Path 7606" d="M218.02,374.077a4.888,4.888,0,0,0-4.153,1.993l-.1-1.717h-2.39l.014.22c.071,1.07.1,2.248.1,3.938v13.31H214.1v-6.211a4.587,4.587,0,0,0,3.571,1.535,5.386,5.386,0,0,0,3.959-1.683,7.139,7.139,0,0,0,1.748-5.025,6.95,6.95,0,0,0-1.518-4.588,4.971,4.971,0,0,0-3.84-1.77m-.651,2.163c2.329,0,3.371,2.157,3.371,4.3,0,2.757-1.33,4.47-3.47,4.47a3.167,3.167,0,0,1-3.078-2.424,3.333,3.333,0,0,1-.093-.846v-2.1a3.931,3.931,0,0,1,.083-.645c.013-.071.027-.143.037-.212a3.308,3.308,0,0,1,3.149-2.538" transform="translate(-159.314 -357.185)" fill="#fff"/>
      <path id="Path_7607" data-name="Path 7607" d="M263.6,374.077a4.89,4.89,0,0,0-4.154,1.993l-.1-1.717h-2.389l.013.22c.071,1.071.1,2.248.1,3.938v13.31h2.613v-6.211a4.585,4.585,0,0,0,3.57,1.535,5.392,5.392,0,0,0,3.96-1.683,7.145,7.145,0,0,0,1.747-5.025,6.95,6.95,0,0,0-1.519-4.588,4.969,4.969,0,0,0-3.839-1.77m-.65,2.163c2.328,0,3.37,2.157,3.37,4.3,0,2.757-1.331,4.47-3.47,4.47a3.167,3.167,0,0,1-3.078-2.424,3.338,3.338,0,0,1-.092-.846v-2.1a3.84,3.84,0,0,1,.083-.647c.013-.07.026-.141.038-.21a3.306,3.306,0,0,1,3.149-2.538" transform="translate(-191.443 -357.185)" fill="#fff"/>
      <path id="Path_7608" data-name="Path 7608" d="M321.724,365.571c-2.438-.944-3.219-1.687-3.219-3.059,0-1.155.918-2.32,2.969-2.32a5.938,5.938,0,0,1,3.067.77l.221.137.737-2.18-.146-.085a7.572,7.572,0,0,0-3.8-.854c-3.332,0-5.659,1.967-5.659,4.782,0,2.271,1.457,3.858,4.586,4.995,2.217.829,3.042,1.678,3.042,3.133,0,1.647-1.273,2.669-3.321,2.669a7.15,7.15,0,0,1-3.766-1.068l-.226-.145-.7,2.231.129.085a8.949,8.949,0,0,0,4.415,1.135c4.49,0,6.083-2.738,6.083-5.083,0-2.417-1.277-3.908-4.407-5.143" transform="translate(-232.711 -345.837)" fill="#fff"/>
      <path id="Path_7609" data-name="Path 7609" d="M356.842,364.929l-2.562.8v2.17H352.4v2.088h1.876v6.4a4.89,4.89,0,0,0,.9,3.315,3.349,3.349,0,0,0,2.528.992,6.144,6.144,0,0,0,2.019-.312l.146-.052-.125-2.092-.251.077a3.936,3.936,0,0,1-1.215.14c-1.012,0-1.445-.64-1.445-2.144v-6.321h3.152V367.9h-3.152Z" transform="translate(-258.719 -350.736)" fill="#fff"/>
      <path id="Path_7610" data-name="Path 7610" d="M385.229,374.077c-3.655,0-6.208,2.728-6.208,6.633,0,3.788,2.47,6.433,6.008,6.433h.024c2.991,0,6.208-2.083,6.208-6.658a6.6,6.6,0,0,0-1.665-4.621,5.813,5.813,0,0,0-4.367-1.787m-.076,2.063c2.35,0,3.42,2.291,3.42,4.421,0,2.619-1.46,4.52-3.47,4.52h-.025c-1.981,0-3.42-1.869-3.42-4.444,0-2.238,1.081-4.5,3.495-4.5" transform="translate(-277.48 -357.185)" fill="#fff"/>
      <path id="Path_7611" data-name="Path 7611" d="M432.073,374.2l-.157-.04a2.517,2.517,0,0,0-.65-.082,3.726,3.726,0,0,0-3.276,2.1l-.077-1.828H425.57l.015.22c.07,1.034.1,2.2.1,3.762l-.024,8.535h2.612V380.21a6.734,6.734,0,0,1,.072-1.013,2.888,2.888,0,0,1,2.749-2.633,6.7,6.7,0,0,1,.7.044l.279.029Z" transform="translate(-310.29 -357.185)" fill="#fff"/>
      <path id="Path_7612" data-name="Path 7612" d="M453.4,373.993c-3.478,0-5.907,2.779-5.907,6.758,0,3.832,2.417,6.308,6.157,6.308a10.024,10.024,0,0,0,4.136-.793l.157-.071-.5-1.947-.218.088a8.1,8.1,0,0,1-3.273.585,3.632,3.632,0,0,1-3.913-3.788l8.433.025.034-.167a5.839,5.839,0,0,0,.078-1.091c0-2.725-1.357-5.908-5.182-5.908m-.174,1.988a2.578,2.578,0,0,1,1.918.732,3.718,3.718,0,0,1,.9,2.432h-5.959c.243-1.509,1.187-3.164,3.141-3.164" transform="translate(-325.74 -357.125)" fill="#fff"/>
      <path id="Path_7613" data-name="Path 7613" d="M158.44,318.541a19.045,19.045,0,0,1,2.506-.169,5.593,5.593,0,0,1,3.679,1.006,3.576,3.576,0,0,1,1.293,2.946,4.137,4.137,0,0,1-1.307,3.177,6.063,6.063,0,0,1-4.029,1.176,18.178,18.178,0,0,1-2.143-.1Zm1.186,7.239a8.456,8.456,0,0,0,1.186.048c2.506.012,3.866-1.261,3.866-3.468.014-1.952-1.2-3.153-3.678-3.153a7.439,7.439,0,0,0-1.374.109Z" transform="translate(-122.005 -317.921)" fill="#fff"/>
      <path id="Path_7614" data-name="Path 7614" d="M190.549,332.065a2.946,2.946,0,0,1-3.126-3.019,3.027,3.027,0,0,1,3.233-3.116,2.922,2.922,0,0,1,3.139,3.007,3.038,3.038,0,0,1-3.233,3.128Zm.04-.8a2.088,2.088,0,0,0,1.981-2.292,1.994,1.994,0,1,0-1.994,2.292Z" transform="translate(-142.433 -323.248)" fill="#fff"/>
      <path id="Path_7615" data-name="Path 7615" d="M212.473,326.381l.876,2.971c.175.655.35,1.273.471,1.88h.04c.148-.594.364-1.225.579-1.867l1.064-2.983h1l1.011,2.934c.242.692.431,1.322.579,1.916h.04a16.248,16.248,0,0,1,.5-1.9l.929-2.947h1.172l-2.1,5.869h-1.078l-1-2.8a19.312,19.312,0,0,1-.58-1.94h-.027a16.193,16.193,0,0,1-.593,1.952l-1.051,2.789h-1.078l-1.968-5.869Z" transform="translate(-159.235 -323.566)" fill="#fff"/>
      <path id="Path_7616" data-name="Path 7616" d="M247.241,327.652c0-.619-.014-1.1-.054-1.589h1.051l.067.958h.027a2.471,2.471,0,0,1,2.156-1.091,2.232,2.232,0,0,1,2.3,2.5v3.5h-1.185v-3.383c0-.946-.391-1.746-1.509-1.746a1.692,1.692,0,0,0-1.59,1.091,1.437,1.437,0,0,0-.081.5v3.54h-1.186Z" transform="translate(-184.558 -323.248)" fill="#fff"/>
      <rect id="Rectangle_4553" data-name="Rectangle 4553" width="1.186" height="8.609" transform="translate(70.161 0.075)" fill="#fff"/>
      <path id="Path_7617" data-name="Path 7617" d="M284.916,332.065a2.946,2.946,0,0,1-3.126-3.019,3.027,3.027,0,0,1,3.233-3.116,2.922,2.922,0,0,1,3.139,3.007,3.038,3.038,0,0,1-3.233,3.128Zm.04-.8a2.088,2.088,0,0,0,1.981-2.292,1.994,1.994,0,1,0-1.994,2.292Z" transform="translate(-208.947 -323.248)" fill="#fff"/>
      <path id="Path_7618" data-name="Path 7618" d="M311.822,330.526a8.889,8.889,0,0,0,.094,1.406h-1.065l-.108-.739h-.04a2.508,2.508,0,0,1-1.994.873,1.778,1.778,0,0,1-1.994-1.686c0-1.419,1.4-2.195,3.92-2.183v-.121c0-.485-.148-1.37-1.481-1.357a3.4,3.4,0,0,0-1.711.436l-.27-.715a4.59,4.59,0,0,1,2.156-.509,2.182,2.182,0,0,1,2.492,2.4Zm-1.158-1.588c-1.294-.024-2.762.182-2.762,1.322a.991.991,0,0,0,1.1,1.019,1.644,1.644,0,0,0,1.6-.982.981.981,0,0,0,.054-.34Z" transform="translate(-226.516 -323.248)" fill="#fff"/>
      <path id="Path_7619" data-name="Path 7619" d="M334.958,317.1v7.093c0,.522.014,1.116.054,1.516h-1.064l-.054-1.018h-.027a2.44,2.44,0,0,1-2.21,1.152,2.8,2.8,0,0,1-2.8-2.983,2.926,2.926,0,0,1,2.924-3.153,2.243,2.243,0,0,1,1.968.885h.027V317.1Zm-1.185,5.129a1.768,1.768,0,0,0-.054-.461,1.713,1.713,0,0,0-1.71-1.225,2.008,2.008,0,0,0-1.954,2.256,1.947,1.947,0,0,0,1.927,2.182,1.763,1.763,0,0,0,1.738-1.273,1.652,1.652,0,0,0,.054-.461Z" transform="translate(-242.121 -317.023)" fill="#fff"/>
      <path id="Path_7620" data-name="Path 7620" d="M367.4,332.065a2.946,2.946,0,0,1-3.126-3.019,3.028,3.028,0,0,1,3.234-3.116,2.922,2.922,0,0,1,3.139,3.007,3.038,3.038,0,0,1-3.233,3.128Zm.041-.8a2.088,2.088,0,0,0,1.98-2.292,1.993,1.993,0,1,0-1.994,2.292Z" transform="translate(-267.089 -323.248)" fill="#fff"/>
      <path id="Path_7621" data-name="Path 7621" d="M390.811,327.652c0-.619-.014-1.1-.054-1.589h1.051l.068.958h.026a2.47,2.47,0,0,1,2.155-1.091,2.232,2.232,0,0,1,2.3,2.5v3.5h-1.186v-3.383c0-.946-.39-1.746-1.509-1.746a1.693,1.693,0,0,0-1.59,1.091,1.453,1.453,0,0,0-.081.5v3.54h-1.185Z" transform="translate(-285.752 -323.248)" fill="#fff"/>
      <path id="Path_7622" data-name="Path 7622" d="M425.612,321.618v1.406h1.7v.812h-1.7V327c0,.727.229,1.14.889,1.14a2.452,2.452,0,0,0,.687-.073l.053.812a3.558,3.558,0,0,1-1.051.146,1.8,1.8,0,0,1-1.28-.449,2.13,2.13,0,0,1-.458-1.54v-3.2h-1.01v-.812h1.01v-1.079Z" transform="translate(-308.791 -320.209)" fill="#fff"/>
      <path id="Path_7623" data-name="Path 7623" d="M441.064,317.1h1.185v3.662h.027a2.016,2.016,0,0,1,.849-.752,2.5,2.5,0,0,1,1.212-.3,2.231,2.231,0,0,1,2.277,2.51v3.492H445.43v-3.371c0-.958-.391-1.746-1.509-1.746a1.7,1.7,0,0,0-1.59,1.067,1.17,1.17,0,0,0-.081.509v3.54h-1.185Z" transform="translate(-321.211 -317.023)" fill="#fff"/>
      <path id="Path_7624" data-name="Path 7624" d="M465.947,329.151a1.987,1.987,0,0,0,2.223,2.037,4.944,4.944,0,0,0,1.806-.291l.215.752a5.829,5.829,0,0,1-2.183.376,2.892,2.892,0,0,1-3.207-2.958,2.988,2.988,0,0,1,3.071-3.177,2.568,2.568,0,0,1,2.681,2.765,2.466,2.466,0,0,1-.04.509Zm3.463-.764a1.574,1.574,0,0,0-1.631-1.734,1.846,1.846,0,0,0-1.819,1.734Z" transform="translate(-337.942 -323.219)" fill="#fff"/>
    </g>
  </g>
</svg>
