<svg id="Group_20834" data-name="Group 20834" xmlns="http://www.w3.org/2000/svg" xmlns:xlink="http://www.w3.org/1999/xlink" width="201.928" height="48" viewBox="0 0 201.928 48">
  <defs>
    <clipPath id="clip-path">
      <rect id="Rectangle_5879" data-name="Rectangle 5879" width="201.928" height="48" fill="none"/>
    </clipPath>
  </defs>
  <g id="Group_20833" data-name="Group 20833" clip-path="url(#clip-path)">
    <path id="Path_9363" data-name="Path 9363" d="M83.69,119.17c-.792-10.062,10.861-10.629,13.222-3.438,3.931,31.029-32.159,38.5-42.1,24.323,5.968,7.276,37,2.819,28.881-20.886" transform="translate(-48.907 -98.953)" fill="#827623" fill-rule="evenodd"/>
    <path id="Path_9364" data-name="Path 9364" d="M28.633,13.64C38.611,15.091,39.941,3.49,32.922.667,2.24-5.29-7.571,30.259,5.917,41.116-.95,34.677,5.522,3.987,28.633,13.64" transform="translate(0 0.001)" fill="#827623" fill-rule="evenodd"/>
    <path id="Path_9365" data-name="Path 9365" d="M571.687,157.529a5.779,5.779,0,0,1-2.045,4.624,7.362,7.362,0,0,1-4.885,1.632H549.32v-3.53h15.437a4.688,4.688,0,0,0,2.516-.652,2.469,2.469,0,0,0,1.215-2.163,2.318,2.318,0,0,0-1.241-2.1,4.785,4.785,0,0,0-2.491-.623h-9.542a6.728,6.728,0,0,1-4.414-1.455,5.458,5.458,0,0,1,0-8.268,6.749,6.749,0,0,1,4.414-1.455h15.256v3.526H555.215a2.694,2.694,0,0,0-1.721.567,1.827,1.827,0,0,0-.707,1.507,1.785,1.785,0,0,0,.707,1.514,2.8,2.8,0,0,0,1.721.53h9.542a7.213,7.213,0,0,1,4.885,1.691,5.867,5.867,0,0,1,2.045,4.657m23.671,6.256h-3.522v-8.422H579.951V151.84h11.885v-8.3h3.522Zm-17,0h-3.529V143.536h3.529Zm46.539,0-4.532-.033-3.4-5.659h-9.6l2.133-3.5h5.361l-3.526-5.843-9.123,15h-4.535l10.994-18.289a4.743,4.743,0,0,1,1.153-1.3,2.757,2.757,0,0,1,1.6-.682,2.608,2.608,0,0,1,1.6.652,4.756,4.756,0,0,1,1.157,1.334Zm21.895-1.75c0,1.3-.446,1.96-1.333,1.96a3.346,3.346,0,0,1-2.192-1.219l-12.976-13.042v14.052h-3.5v-18.5a2.024,2.024,0,0,1,.383-1.231,1.292,1.292,0,0,1,1.1-.519,2.951,2.951,0,0,1,2.015,1.039l12.976,13.009V143.536h3.526Zm23.016-14.972H661.84v16.723h-3.5V147.062h-8v-3.526h19.461Zm21.924,16.723-10.725-18.322a4.535,4.535,0,0,0-1.157-1.334,2.576,2.576,0,0,0-1.6-.652,2.736,2.736,0,0,0-1.6.682,4.766,4.766,0,0,0-1.157,1.3L664.5,163.751h4.535l9.123-15,3.529,5.843h-5.364l-2.133,3.5h9.6l3.4,5.659Z" transform="translate(-489.802 -128.028)" fill="#fff"/>
    <path id="Path_9366" data-name="Path 9366" d="M557.664,368.175l-.74.458a1.6,1.6,0,0,0-1.437-.873,1.443,1.443,0,0,0-.973.351,1.127,1.127,0,0,0-.409.894.922.922,0,0,0,.11.447,1.029,1.029,0,0,0,.343.356c.155.1.286.183.393.24s.259.128.459.213l.552.235a7.691,7.691,0,0,1,.785.378,3.928,3.928,0,0,1,.613.437,1.639,1.639,0,0,1,.453.622,2.15,2.15,0,0,1,.149.82,2.327,2.327,0,0,1-.763,1.762,2.782,2.782,0,0,1-3.553.149,2.554,2.554,0,0,1-.9-1.506l.906-.245a1.734,1.734,0,0,0,.552,1.06,1.582,1.582,0,0,0,1.117.431,1.757,1.757,0,0,0,1.2-.453,1.425,1.425,0,0,0,.514-1.113,1.3,1.3,0,0,0-.093-.495,1.388,1.388,0,0,0-.211-.367,1.562,1.562,0,0,0-.37-.3c-.169-.107-.3-.183-.4-.229s-.251-.115-.464-.207l-.508-.213a4.556,4.556,0,0,1-1.348-.83,1.621,1.621,0,0,1-.464-1.225,1.826,1.826,0,0,1,.685-1.474,2.641,2.641,0,0,1,2.908-.245,2.369,2.369,0,0,1,.895.921" transform="translate(-493.227 -327.419)" fill="#fff"/>
    <path id="Path_9367" data-name="Path 9367" d="M703.839,375.232v-8.3h4.322v.859h-3.393v2.467h3.293v.859h-3.293v3.26h3.393v.859Z" transform="translate(-628.051 -327.418)" fill="#fff"/>
    <path id="Path_9368" data-name="Path 9368" d="M851.087,367.717v1.107a3.487,3.487,0,0,0-2.542-1.064,3.23,3.23,0,0,0-2.371.99,3.235,3.235,0,0,0,.005,4.663,3.263,3.263,0,0,0,2.387.99,3.534,3.534,0,0,0,2.52-1.065v1.107a4.249,4.249,0,0,1-2.487.788,4.315,4.315,0,0,1-3.056-1.209,3.849,3.849,0,0,1-1.288-2.911,3.956,3.956,0,0,1,1.277-2.954,4.264,4.264,0,0,1,3.067-1.23,4.151,4.151,0,0,1,2.487.788" transform="translate(-753.348 -327.419)" fill="#fff"/>
    <path id="Path_9369" data-name="Path 9369" d="M1013.01,366.929v4.861q0,.466.005.66a2.924,2.924,0,0,0,.094.557,1.645,1.645,0,0,0,.266.6,1.814,1.814,0,0,0,.735.568,2.287,2.287,0,0,0,.945.212,2.253,2.253,0,0,0,.9-.195,2,2,0,0,0,.735-.531,1.567,1.567,0,0,0,.288-.557,2.416,2.416,0,0,0,.111-.552c.007-.148.011-.36.011-.633v-4.991h.928v5.11a5.048,5.048,0,0,1-.137,1.288,2.262,2.262,0,0,1-.592.974,2.961,2.961,0,0,1-2.243.931,3,3,0,0,1-2.155-.834,2.267,2.267,0,0,1-.658-1.007,4.836,4.836,0,0,1-.16-1.354v-5.11Z" transform="translate(-903.103 -327.419)" fill="#fff"/>
    <path id="Path_9370" data-name="Path 9370" d="M1173.548,371.587v3.645h-.929v-8.3h1.2a5.989,5.989,0,0,1,1.15.1,3.4,3.4,0,0,1,.962.341,1.643,1.643,0,0,1,.7.71,2.448,2.448,0,0,1,.243,1.14,2.282,2.282,0,0,1-.563,1.585,2.194,2.194,0,0,1-1.525.706l2.653,3.722H1176.3l-2.52-3.645Zm0-3.8v2.984h.287a4.917,4.917,0,0,0,.779-.055,2.618,2.618,0,0,0,.663-.2,1.06,1.06,0,0,0,.5-.457,1.581,1.581,0,0,0,.171-.771,1.7,1.7,0,0,0-.122-.677,1.24,1.24,0,0,0-.3-.44,1.207,1.207,0,0,0-.475-.248,2.859,2.859,0,0,0-.57-.109c-.181-.015-.4-.023-.658-.023Z" transform="translate(-1046.354 -327.419)" fill="#fff"/>
    <rect id="Rectangle_5877" data-name="Rectangle 5877" width="0.929" height="8.304" transform="translate(141.97 39.51)" fill="#fff"/>
    <path id="Path_9371" data-name="Path 9371" d="M1428.991,367.788v7.445h-.928v-7.445h-2.011v-.859h4.973v.859Z" transform="translate(-1272.498 -327.419)" fill="#fff"/>
    <rect id="Rectangle_5878" data-name="Rectangle 5878" width="0.929" height="8.304" transform="translate(169.193 39.51)" fill="#fff"/>
    <path id="Path_9372" data-name="Path 9372" d="M1685.635,375.232v-8.3h4.322v.859h-3.393v2.467h3.293v.859h-3.293v3.26h3.393v.859Z" transform="translate(-1504.13 -327.418)" fill="#fff"/>
    <path id="Path_9373" data-name="Path 9373" d="M1831.694,368.175l-.74.458a1.6,1.6,0,0,0-1.437-.873,1.443,1.443,0,0,0-.973.351,1.127,1.127,0,0,0-.408.894.922.922,0,0,0,.11.447,1.031,1.031,0,0,0,.343.356c.155.1.286.183.393.24s.259.128.459.213l.552.235a7.683,7.683,0,0,1,.785.378,3.925,3.925,0,0,1,.613.437,1.639,1.639,0,0,1,.453.622,2.152,2.152,0,0,1,.149.82,2.327,2.327,0,0,1-.763,1.762,2.782,2.782,0,0,1-3.553.149,2.555,2.555,0,0,1-.9-1.506l.906-.245a1.734,1.734,0,0,0,.552,1.06,1.582,1.582,0,0,0,1.117.431,1.758,1.758,0,0,0,1.2-.453,1.425,1.425,0,0,0,.514-1.113,1.3,1.3,0,0,0-.094-.495,1.383,1.383,0,0,0-.211-.367,1.561,1.561,0,0,0-.37-.3c-.169-.107-.3-.183-.4-.229s-.251-.115-.464-.207l-.508-.213a4.556,4.556,0,0,1-1.349-.83,1.621,1.621,0,0,1-.464-1.225,1.826,1.826,0,0,1,.685-1.474,2.641,2.641,0,0,1,2.908-.245,2.369,2.369,0,0,1,.895.921" transform="translate(-1630.073 -327.419)" fill="#fff"/>
  </g>
</svg>
