<svg xmlns="http://www.w3.org/2000/svg" width="244.308" height="497.671" viewBox="0 0 244.308 497.671">
  <g id="Group_20817" data-name="Group 20817" transform="translate(-941.445 -216)">
    <g id="Group_20850" data-name="Group 20850">
      <g id="Group_20849" data-name="Group 20849">
        <g id="custom_phone_mockup" transform="translate(864.801 177.801)">
          <g id="Group_20816" data-name="Group 20816" transform="translate(76.644 38.2)">
            <path id="Path_9334" data-name="Path 9334" d="M118.879,535.87l163.094-.35c22.22-.058,40.19-19,40.135-42.353L321.33,80.378c-.056-23.351-18.081-42.236-40.3-42.178l-163.094.35c-22.22.058-40.19,19-40.135,42.353l.778,412.789C78.605,517.043,96.659,535.929,118.879,535.87Z" transform="translate(-77.8 -38.2)" fill="#978c21"/>
            <path id="Path_9335" data-name="Path 9335" d="M123.212,538.3c-21.276.058-38.607-18.1-38.635-40.456L83.8,85.052c-.056-22.359,17.22-40.573,38.5-40.6L285.39,44.1c21.276-.058,38.607,18.1,38.635,40.456l.778,412.789c.056,22.359-17.22,40.573-38.5,40.6Z" transform="translate(-82.133 -42.377)" fill="#978c21"/>
            <path id="Path_9336" data-name="Path 9336" d="M128.674,541.489c-20.109.029-36.5-17.1-36.524-38.237L91.4,90.434C91.372,69.3,107.676,52.079,127.785,52.05l39.621-.085L290.879,51.7c20.109-.029,36.5,17.1,36.524,38.237l.778,412.789c.028,21.133-16.276,38.354-36.385,38.383Z" transform="translate(-87.622 -47.759)" fill="#3c3c3b"/>
            <path id="Path_9337" data-name="Path 9337" d="M148.969,553.227c-15.776.029-28.664-13.427-28.691-30.035L119.5,110.4c-.028-16.579,12.776-30.123,28.58-30.152l163.094-.35c15.776-.029,28.664,13.427,28.691,30.035l.778,412.789c.028,16.579-12.776,30.123-28.58,30.152Z" transform="translate(-107.918 -67.728)" fill="#fff"/>
          </g>
        </g>
      </g>
    </g>
  </g>
</svg>
